<svg width="20" height="20" viewBox="0 0 20 20" fill="none" xmlns="http://www.w3.org/2000/svg">
<g id="icons/ic_facebbook">
<path id="shape" d="M14.1667 2.91582C14.1667 2.6857 13.9801 2.49915 13.75 2.49915H11.6667C9.48276 2.39036 7.62106 4.06589 7.5 6.24915V8.49915H5.41667C5.18655 8.49915 5 8.6857 5 8.91582V11.0825C5 11.3126 5.18655 11.4992 5.41667 11.4992H7.5V17.0825C7.5 17.3126 7.68655 17.4992 7.91667 17.4992H10.4167C10.6468 17.4992 10.8333 17.3126 10.8333 17.0825V11.4992H13.0167C13.2073 11.5019 13.3755 11.3749 13.425 11.1908L14.025 9.02415C14.0586 8.89938 14.0324 8.76608 13.9541 8.66329C13.8758 8.56051 13.7542 8.49988 13.625 8.49915H10.8333V6.24915C10.8763 5.82173 11.2371 5.497 11.6667 5.49915H13.75C13.9801 5.49915 14.1667 5.3126 14.1667 5.08249V2.91582Z" fill="#1877F2"/>
</g>
</svg>
