<svg width="20" height="20" viewBox="0 0 20 20" fill="none" xmlns="http://www.w3.org/2000/svg">
<g id="icons/ic_instagram">
<g id="shape">
<path d="M8.14859 9.99935C8.14859 11.0219 8.97741 11.8511 10.0003 11.8511C11.0232 11.8511 11.8521 11.0223 11.8521 9.99935C11.8521 8.97678 11.0232 8.14761 10.0003 8.14761C8.97776 8.14761 8.14859 8.97643 8.14859 9.99935Z" fill="#E02D69"/>
<path fill-rule="evenodd" clip-rule="evenodd" d="M10.0003 5.44484C11.4837 5.44484 11.6594 5.45039 12.2451 5.47713C12.8774 5.50595 13.4642 5.63268 13.9156 6.08407C14.367 6.53546 14.4937 7.12227 14.5225 7.75456C14.5493 8.34032 14.5548 8.51602 14.5548 9.99935C14.5548 11.4827 14.5493 11.6584 14.5225 12.2441C14.4937 12.8764 14.367 13.4632 13.9156 13.9146C13.4642 14.366 12.8774 14.4928 12.2451 14.5216C11.6594 14.5483 11.4837 14.5539 10.0003 14.5539C8.51699 14.5539 8.3413 14.5483 7.75553 14.5216C7.12324 14.4928 6.53644 14.366 6.08505 13.9146C5.63366 13.4632 5.50692 12.8764 5.4781 12.2441C5.45137 11.6584 5.44581 11.4827 5.44581 9.99935C5.44581 8.51602 5.45137 8.34032 5.4781 7.75456C5.50692 7.12227 5.63366 6.53546 6.08505 6.08407C6.53644 5.63268 7.12324 5.50595 7.75553 5.47713C8.3413 5.45039 8.51699 5.44484 10.0003 5.44484ZM7.14755 9.99935C7.14755 8.424 8.42463 7.14657 10.0003 7.14657C11.576 7.14657 12.8531 8.424 12.8531 9.99935C12.8531 11.5747 11.5757 12.8521 10.0003 12.8521C8.42498 12.8521 7.14755 11.5747 7.14755 9.99935ZM12.966 7.70039C13.3341 7.70039 13.6326 7.40191 13.6326 7.03372C13.6326 6.66553 13.3341 6.36706 12.966 6.36706C12.5978 6.36706 12.2993 6.66553 12.2993 7.03372C12.2993 7.40191 12.5978 7.70039 12.966 7.70039Z" fill="#E02D69"/>
<path fill-rule="evenodd" clip-rule="evenodd" d="M6.56456 1.71602C7.45345 1.67574 7.73713 1.66602 10.0003 1.66602C12.2635 1.66602 12.5472 1.67574 13.4361 1.71602C14.791 1.77782 15.9802 2.10977 16.935 3.06463C17.8903 4.01984 18.2219 5.20942 18.2837 6.56359C18.3239 7.45247 18.3337 7.73615 18.3337 9.99935C18.3337 12.2625 18.3239 12.5462 18.2837 13.4351C18.2219 14.79 17.8899 15.9792 16.935 16.9341C15.9798 17.8893 14.7899 18.2209 13.4361 18.2827C12.5472 18.323 12.2635 18.3327 10.0003 18.3327C7.73713 18.3327 7.45345 18.323 6.56456 18.2827C5.2097 18.2209 4.02046 17.8889 3.0656 16.9341C2.11039 15.9789 1.7788 14.7893 1.71699 13.4351C1.67671 12.5462 1.66699 12.2625 1.66699 9.99935C1.66699 7.73615 1.67671 7.45247 1.71699 6.56359C1.7788 5.20872 2.11074 4.01949 3.0656 3.06463C4.02081 2.10942 5.2104 1.77782 6.56456 1.71602ZM10.0003 4.44379C8.49164 4.44379 8.30241 4.45004 7.7097 4.47713C6.80692 4.51845 6.01387 4.73963 5.37706 5.37609C4.7406 6.01254 4.51942 6.8056 4.4781 7.70872C4.45102 8.30143 4.44477 8.49067 4.44477 9.99935C4.44477 11.508 4.45102 11.6973 4.4781 12.29C4.51942 13.1928 4.7406 13.9858 5.37706 14.6226C6.01352 15.2591 6.80658 15.4803 7.7097 15.5216C8.30241 15.5487 8.49164 15.5549 10.0003 15.5549C11.509 15.5549 11.6982 15.5487 12.291 15.5216C13.1937 15.4803 13.9868 15.2591 14.6236 14.6226C15.26 13.9862 15.4812 13.1931 15.5225 12.29C15.5496 11.6973 15.5559 11.508 15.5559 9.99935C15.5559 8.49067 15.5496 8.30143 15.5225 7.70872C15.4812 6.80595 15.26 6.01289 14.6236 5.37609C13.9871 4.73963 13.1941 4.51845 12.291 4.47713C11.6982 4.45004 11.509 4.44379 10.0003 4.44379Z" fill="#E02D69"/>
</g>
</g>
</svg>
