<svg width="25" height="26" viewBox="0 0 25 26" fill="none" xmlns="http://www.w3.org/2000/svg">
<g id="icons/navbar/ic_banking">
<g id="shape" opacity="0.32">
<path d="M12.4997 11.6453C17.3995 11.6453 20.2885 11.5349 21.7372 11.4551C22.4077 11.4182 22.9163 10.8411 22.9163 10.1428V8.87661C22.9163 8.38944 22.7654 7.91147 22.4336 7.56751C20.4875 5.54991 16.0149 2.94964 12.984 2.26156C12.6638 2.18885 12.3356 2.18885 12.0153 2.26156C8.98441 2.94964 4.51187 5.54991 2.56571 7.56751C2.23394 7.91147 2.08301 8.38944 2.08301 8.87661V10.1428C2.08301 10.8411 2.59165 11.4182 3.26212 11.4551C4.71083 11.5349 7.59983 11.6453 12.4997 11.6453Z" fill="#637381"/>
<path d="M2.26915 20.2888C2.4045 19.8802 2.79788 19.6943 3.2128 19.6699C4.29042 19.6062 6.92853 19.4995 12.4997 19.4995C18.0708 19.4995 20.7089 19.6062 21.7865 19.6699C22.2014 19.6943 22.5948 19.8802 22.7302 20.2888C22.8305 20.5916 22.9163 21.0351 22.9163 21.6661C22.9163 22.2972 22.8305 22.7406 22.7302 23.0434C22.5948 23.4521 22.2014 23.6379 21.7865 23.6624C20.7089 23.726 18.0708 23.8328 12.4997 23.8328C6.92853 23.8328 4.29042 23.726 3.2128 23.6624C2.79788 23.6379 2.4045 23.4521 2.26915 23.0434C2.16887 22.7406 2.08301 22.2972 2.08301 21.6661C2.08301 21.0351 2.16887 20.5916 2.26915 20.2888Z" fill="#637381"/>
</g>
<g id="shape_2">
<path d="M12.5003 9.74935C13.6509 9.74935 14.5837 8.7793 14.5837 7.58268C14.5837 6.38607 13.6509 5.41602 12.5003 5.41602C11.3497 5.41602 10.417 6.38607 10.417 7.58268C10.417 8.7793 11.3497 9.74935 12.5003 9.74935Z" fill="#637381"/>
<path d="M14.5282 11.6385C13.8943 11.6428 13.2189 11.6451 12.5003 11.6451C11.7817 11.6451 11.1064 11.6428 10.4725 11.6385C10.4459 12.344 10.417 13.5964 10.417 15.7077C10.417 17.5705 10.4395 18.7646 10.463 19.5045C11.0941 19.5012 11.7721 19.4993 12.5003 19.4993C13.2285 19.4993 13.9066 19.5012 14.5376 19.5045C14.5612 18.7646 14.5837 17.5705 14.5837 15.7077C14.5837 13.5964 14.5548 12.344 14.5282 11.6385Z" fill="#637381"/>
<path d="M16.7234 11.614C16.6965 12.3149 16.667 13.5718 16.667 15.7077C16.667 17.5865 16.6899 18.7851 16.7137 19.5235C18.5907 19.5473 19.8985 19.5852 20.7838 19.621C20.8087 18.8923 20.8337 17.6716 20.8337 15.7077C20.8337 13.4527 20.8007 12.1776 20.7728 11.5019C19.8046 11.5435 18.4762 11.5862 16.7234 11.614Z" fill="#637381"/>
<path d="M4.22788 11.5019C5.19603 11.5435 6.52443 11.5862 8.27723 11.614C8.30411 12.3149 8.33366 13.5718 8.33366 15.7077C8.33366 17.5865 8.31079 18.7851 8.287 19.5235C6.40996 19.5473 5.10219 19.5852 4.2169 19.621C4.192 18.8923 4.16699 17.6716 4.16699 15.7077C4.16699 13.4527 4.19996 12.1776 4.22788 11.5019Z" fill="#637381"/>
</g>
</g>
</svg>
