<svg width="24" height="25" viewBox="0 0 24 25" fill="none" xmlns="http://www.w3.org/2000/svg">
<g id="mdi:information-variant">
<path id="Vector" d="M13.4999 4.16602C13.1021 4.16602 12.7205 4.33064 12.4392 4.62366C12.1579 4.91669 11.9999 5.31411 11.9999 5.72852C11.9999 6.14292 12.1579 6.54034 12.4392 6.83337C12.7205 7.1264 13.1021 7.29102 13.4999 7.29102C13.8977 7.29102 14.2792 7.1264 14.5605 6.83337C14.8418 6.54034 14.9999 6.14292 14.9999 5.72852C14.9999 5.31411 14.8418 4.91669 14.5605 4.62366C14.2792 4.33064 13.8977 4.16602 13.4999 4.16602ZM13.1399 9.13477C11.9499 9.23893 8.69988 11.9368 8.69988 11.9368C8.49988 12.0931 8.55988 12.0827 8.71988 12.3743C8.87988 12.6556 8.85988 12.6764 9.04988 12.541C9.24988 12.4056 9.57988 12.1868 10.1299 11.8327C12.2499 10.416 10.4699 13.6868 9.55988 19.1973C9.19988 21.9264 11.5599 20.5202 12.1699 20.1035C12.7699 19.6973 14.3799 18.541 14.5399 18.4264C14.7599 18.2702 14.5999 18.1452 14.4299 17.8848C14.3099 17.7077 14.1899 17.8327 14.1899 17.8327C13.5399 18.2806 12.3499 19.2181 12.1899 18.6243C11.9999 18.0306 13.2199 13.9577 13.8899 11.1556C13.9999 10.4889 14.2999 9.0306 13.1399 9.13477Z" fill="black"/>
</g>
</svg>
